<?xml version="1.0" encoding="UTF-8" standalone="no"?>
<svg
   xmlns:dc="http://purl.org/dc/elements/1.1/"
   xmlns:cc="http://creativecommons.org/ns#"
   xmlns:rdf="http://www.w3.org/1999/02/22-rdf-syntax-ns#"
   xmlns:svg="http://www.w3.org/2000/svg"
   xmlns="http://www.w3.org/2000/svg"
   xmlns:sodipodi="http://sodipodi.sourceforge.net/DTD/sodipodi-0.dtd"
   xmlns:inkscape="http://www.inkscape.org/namespaces/inkscape"
   inkscape:version="1.0 (4035a4f, 2020-05-01)"
   sodipodi:docname="logo.svg"
   id="svg857"
   version="1.1"
   fill="none"
   viewBox="0 0 287 60"
   height="60"
   width="287">
  <metadata
     id="metadata863">
    <rdf:RDF>
      <cc:Work
         rdf:about="">
        <dc:format>image/svg+xml</dc:format>
        <dc:type
           rdf:resource="http://purl.org/dc/dcmitype/StillImage" />
        <dc:title></dc:title>
      </cc:Work>
    </rdf:RDF>
  </metadata>
  <defs
     id="defs861" />
  <sodipodi:namedview
     inkscape:current-layer="svg857"
     inkscape:window-maximized="0"
     inkscape:window-y="23"
     inkscape:window-x="61"
     inkscape:cy="48.118375"
     inkscape:cx="94.139835"
     inkscape:zoom="4.3759247"
     showgrid="false"
     id="namedview859"
     inkscape:window-height="682"
     inkscape:window-width="1386"
     inkscape:pageshadow="2"
     inkscape:pageopacity="0"
     guidetolerance="10"
     gridtolerance="10"
     objecttolerance="10"
     borderopacity="1"
     bordercolor="#666666"
     pagecolor="#ffffff" />
  <g
     transform="matrix(0.99813223,0,0,1.0027325,0.38321374,-0.105667)"
     id="g871"
     style="fill:none">
    <path
       style="fill:#cfaf5a;fill-opacity:1;stroke-width:0.149991"
       d="M 25.322706,59.71087 C 11.87192,57.67741 1.476593,47.02121 -0.206834,33.54063 -0.506988,31.13705 -0.314272,26.348244 0.174949,24.053696 2.01753,15.411621 7.251596,8.21406 14.863622,3.854754 c 4.277539,-2.449689 8.813844,-3.722909 13.872273,-3.893579 6.520862,-0.220011 12.480204,1.449887 17.804204,4.98901 7.13655,4.744012 11.77214,11.971355 13.16066,20.518787 0.36094,2.221867 0.36334,6.670558 0.005,8.961568 -2.06088,13.17005 -12.40596,23.37402 -25.643492,25.29369 -2.041365,0.29603 -6.740346,0.28885 -8.7394,-0.0134 z m 2.869257,-11.16274 v -8.72729 l 0.528548,-0.63632 0.528546,-0.63632 V 34.50394 30.459678 H 25.23262 21.216181 l -0.686241,0.595902 -0.686242,0.59591 h -8.737521 -8.73752 v 0.31608 c 0,0.54512 0.460349,3.44197 0.695511,4.37667 2.311952,9.18927 8.961758,16.44768 17.870334,19.50585 1.94135,0.66644 5.099218,1.32048 6.766666,1.40148 l 0.490795,0.0238 z M 14.174106,46.35041 c 0.608413,-0.68284 1.500343,-1.68292 1.98207,-2.22239 l 0.875865,-0.98085 1.125063,-5.25401 c 0.618785,-2.88971 1.125063,-5.27512 1.125063,-5.30092 0,-0.0258 0.210055,-0.0469 0.466788,-0.0469 0.315179,0 0.667343,-0.16935 1.084276,-0.52141 l 0.617489,-0.52142 h 3.446128 3.446127 v 3.39723 3.39723 l -0.528546,0.50538 -0.528547,0.50538 v 4.14211 4.14211 h -7.108988 -7.108989 z m 19.453661,10.69734 c 9.152282,-1.28313 17.111982,-7.13288 21.076192,-15.48933 1.23456,-2.60243 2.23804,-6.20571 2.43697,-8.75061 l 0.0904,-1.15632 h -8.71632 -8.716322 l -0.7194,-0.59843 -0.7194,-0.598423 -3.98911,0.03976 -3.989107,0.03977 -0.04024,3.99671 -0.04024,3.996713 0.606543,0.67977 0.606542,0.67977 v 8.69414 c 0,8.18186 0.01557,8.69398 0.264273,8.69141 0.14535,-0.002 0.977505,-0.10272 1.849235,-0.22493 z M 32.42034,43.71857 v -3.87338 h 5.042327 5.042322 l 2.8223,-1.65181 c 1.55226,-0.9085 2.84229,-1.62917 2.86673,-1.6015 0.0244,0.0277 -0.74187,2.51401 -1.70289,5.5252 l -1.74731,5.47488 H 38.582077 32.42034 Z M 29.249057,25.38092 V 21.344998 L 28.720511,20.73584 28.191963,20.126681 V 11.373259 2.619837 l -0.490795,0.06051 c -2.482251,0.306039 -3.24672,0.43167 -4.49265,0.738309 C 14.062637,5.669577 6.701064,12.454651 3.720777,21.380274 3.11139,23.205321 2.61022,25.511225 2.435493,27.29393 l -0.10586,1.080079 8.816048,0.0056 8.816047,0.0056 0.604055,0.513607 0.604053,0.513609 4.039611,0.0022 4.039611,0.0022 z m -8.329815,2.583405 -0.538409,-0.55866 1.471591,-6.834795 1.471593,-6.834795 -0.677418,-1.433392 c -0.372578,-0.788366 -0.83654,-1.785348 -1.031026,-2.215517 L 21.261962,9.30504 h 3.01196 3.01196 v 5.600174 5.600174 l 0.528547,0.609159 0.528546,0.609159 v 3.39964 3.39964 h -3.442661 -3.442661 z m 18.145695,0.931102 0.51228,-0.521416 h 8.827052 8.82705 l -0.092,-1.177268 C 56.916249,24.342925 55.814939,20.56211 54.385529,17.742862 51.112819,11.288039 45.521839,6.421941 38.719627,4.108081 36.815577,3.460392 34.689717,2.96859 33.175438,2.825469 32.635564,2.774439 32.040948,2.70181 31.85407,2.664062 l -0.339781,-0.06863 v 8.701732 8.701732 l -0.604053,0.721129 -0.604055,0.721128 V 25.429 29.416848 h 4.123246 4.12325 z M 31.363245,25.084359 V 21.645731 L 31.891793,21.009409 32.42034,20.37309 V 14.839065 9.30504 h 3.197607 3.19761 l -0.29999,0.335197 c -0.165,0.184358 -1.06233,1.185776 -1.99408,2.225375 -0.93175,1.039599 -1.75562,2.078708 -1.83081,2.309133 -0.0752,0.230424 -0.802769,3.553044 -1.616821,7.383598 -0.814053,3.830553 -1.531963,6.964643 -1.595353,6.964643 -0.0634,0 -0.115259,-1.547383 -0.115258,-3.438627 z M 139.05167,45.12586 c -1.7801,-0.48164 -2.68492,-1.20247 -3.36635,-2.68179 -0.28615,-0.62119 -0.33758,-0.9819 -0.32805,-2.30093 0.01,-1.41996 0.20827,-2.48338 2.14696,-11.528609 1.17463,-5.480397 2.13569,-10.056357 2.13569,-10.1688 0,-0.112445 -0.34141,-0.950919 -0.75868,-1.863278 -0.41727,-0.91236 -0.73363,-1.683549 -0.70302,-1.713754 0.0306,-0.0302 2.82784,-0.0374 6.21603,-0.01598 l 6.16037,0.03893 -1.32949,1.489764 c -0.7312,0.81937 -1.45421,1.628243 -1.60666,1.797496 -0.20131,0.22347 -0.83753,2.915721 -2.32357,9.832439 -1.12551,5.238582 -2.05983,9.815012 -2.07627,10.169832 -0.0488,1.0535 0.009,1.0681 4.14659,1.0681 h 3.59021 l 0.52257,-0.45264 c 0.62517,-0.54151 0.43489,0.20851 2.97508,-11.726978 l 1.84708,-8.678676 -0.78657,-1.730245 c -0.43259,-0.951634 -0.75992,-1.756506 -0.72739,-1.788602 0.0326,-0.0321 2.82714,-0.04084 6.21018,-0.01942 l 6.15103,0.03893 -1.58922,1.783639 c -0.87409,0.981002 -1.6234,1.919553 -1.66516,2.085669 -0.0418,0.166116 -0.99872,4.626068 -2.12658,9.911003 -1.12784,5.28494 -2.19405,10.04473 -2.36933,10.57732 -0.98946,3.00642 -2.54375,4.70328 -5.16792,5.64201 l -1.07357,0.38404 -6.6446,0.0355 c -5.48109,0.0293 -6.78726,-0.003 -7.45936,-0.18496 z m 63.59875,10e-4 c -1.81438,-0.48197 -3.01468,-1.52209 -3.44613,-2.9862 -0.50351,-1.70865 -0.29775,-3.24043 1.65926,-12.35164 0.96795,-4.506534 1.93016,-8.705034 2.13824,-9.33 0.97046,-2.914943 2.84062,-4.765455 5.65813,-5.598642 0.69038,-0.204156 1.85981,-0.253163 7.22359,-0.302718 6.97703,-0.06446 7.8437,9e-6 9.32859,0.693916 1.79836,0.840393 2.5314,2.191723 2.51183,4.630519 -0.01,1.211733 -0.26429,2.593673 -1.76998,9.608973 -1.97562,9.204822 -2.07757,9.630092 -2.60508,10.866492 -1.11801,2.62043 -3.03372,4.21373 -5.74888,4.78135 -1.46535,0.30634 -13.78843,0.2964 -14.94957,-0.0121 z m 12.87038,-6.0524 c 0.2136,-0.096 0.51624,-0.38093 0.67257,-0.63315 0.32117,-0.51824 3.63471,-15.800403 3.63471,-16.763466 0,-1.020633 -0.12613,-1.050905 -4.37524,-1.05064 -4.10904,3.35e-4 -4.49448,0.07478 -5.0074,0.968115 -0.27488,0.478743 -3.60452,15.846841 -3.60452,16.636781 0,0.25962 0.1125,0.59463 0.24993,0.74447 0.22982,0.25053 0.56332,0.27244 4.14576,0.27244 2.6562,0 4.01942,-0.0555 4.28419,-0.17455 z m -138.959421,4.23073 1.57703,-1.7539 2.43573,-11.409777 c 1.33965,-6.275306 2.43572,-11.543773 2.43572,-11.707632 0,-0.163861 -0.3425,-1.019674 -0.7611,-1.901809 -0.41861,-0.882135 -0.73497,-1.629669 -0.70302,-1.661185 0.0319,-0.03152 2.83562,-0.03979 6.230391,-0.01837 l 6.17229,0.03893 -0.75011,0.822705 c -0.41255,0.452487 -1.13754,1.260672 -1.61107,1.795964 l -0.86096,0.973262 -2.12886,9.973165 c -1.170871,5.485237 -2.164121,10.090487 -2.207231,10.233877 -0.0735,0.24441 0.21905,0.26071 4.680611,0.26071 h 4.75898 l 2.23545,-1.3285 c 1.22949,-0.73066 2.24921,-1.31491 2.26603,-1.29831 0.0319,0.0315 -1.94369,7.81303 -2.13251,8.39964 l -0.1079,0.33519 H 86.537599 74.984349 l 1.57703,-1.75389 z m 27.640131,-0.005 1.58169,-1.75908 2.43145,-11.388084 c 1.3373,-6.263382 2.43024,-11.522099 2.42876,-11.685973 -0.002,-0.163873 -0.34143,-1.026969 -0.75545,-1.917989 -0.41402,-0.891022 -0.75276,-1.645215 -0.75276,-1.675984 0,-0.03077 5.16466,-0.05595 11.47702,-0.05595 6.31237,0 11.47702,0.05627 11.47702,0.125042 0,0.06877 -0.40773,2.023685 -0.90607,4.344248 -0.49835,2.320561 -0.90609,4.243697 -0.90609,4.273634 0,0.02994 -0.7645,-0.551439 -1.6989,-1.291944 l -1.69891,-1.346373 -4.52301,0.03896 -4.52303,0.03896 -0.56718,2.607086 c -0.31195,1.433896 -0.5701,2.724404 -0.57368,2.867794 -0.006,0.243519 0.34698,0.260709 5.35448,0.260709 4.46387,0 5.36098,0.03449 5.36098,0.206099 0,0.113352 -0.27182,1.461955 -0.60405,2.996892 -0.33223,1.534933 -0.60407,2.815663 -0.60407,2.846063 0,0.0304 -2.45874,0.0729 -5.46389,0.0944 l -5.4639,0.0391 -0.55046,2.60708 c -0.30274,1.4339 -0.59751,2.79145 -0.65501,3.01677 l -0.10457,0.40969 h 4.9228 4.9228 l 2.19067,-1.27834 c 1.20487,-0.70308 2.22546,-1.24403 2.26795,-1.2021 0.0679,0.067 -1.24963,6.55075 -1.6317,8.02981 l -0.1443,0.55866 h -11.93514 -11.93514 l 1.58169,-1.75908 z m 62.37728,0.004 1.57959,-1.75502 2.42778,-11.370577 c 1.33525,-6.253821 2.42775,-11.524166 2.42775,-11.711877 0,-0.187714 -0.33978,-1.059132 -0.75507,-1.936485 -0.41529,-0.877352 -0.75507,-1.625609 -0.75507,-1.662791 0,-0.03718 4.57004,-0.04254 10.15565,-0.0119 10.80166,0.05924 10.68986,0.05202 12.27635,0.79337 0.92195,0.430809 1.80094,1.388761 2.1197,2.31005 0.4951,1.431055 0.36647,3.222368 -0.52858,7.360882 -0.42531,1.966488 -0.94278,4.081424 -1.14992,4.699856 -0.98972,2.954702 -2.87847,4.800022 -5.73317,5.601302 -0.75583,0.21215 -1.79737,0.2642 -6.28073,0.31386 l -5.37466,0.0595 -0.55362,2.63296 c -0.3045,1.44812 -0.55318,2.77683 -0.55262,2.95268 0,0.17585 0.33747,1.0306 0.74874,1.89945 l 0.74773,1.57978 h -6.18971 -6.18974 l 1.5796,-1.75501 z m 19.56815,-13.701516 c 0.28789,-0.143262 0.64331,-0.465552 0.78988,-0.716196 0.14656,-0.250646 0.57261,-1.908054 0.94678,-3.683131 0.74328,-3.526074 0.74095,-3.876269 -0.0273,-4.087932 -0.23135,-0.06374 -2.0466,-0.115893 -4.0339,-0.115893 h -3.61323 l -0.86721,4.022361 c -0.47695,2.212298 -0.90496,4.206719 -0.95112,4.432045 l -0.084,0.409686 3.65829,-3.36e-4 c 3.18231,-1.11e-4 3.72641,-0.03412 4.18172,-0.260708 z M 229.6707,43.48604 c 0.77435,-0.86524 1.48721,-1.68647 1.58419,-1.82496 0.15486,-0.2212 5.03502,-22.74643 5.03405,-23.235522 0,-0.104689 -0.3443,-0.933009 -0.76464,-1.840712 -0.42037,-0.907703 -0.73673,-1.67756 -0.70304,-1.710795 0.0337,-0.03324 2.82601,-0.04291 6.20513,-0.02149 l 6.14387,0.03893 -1.57989,1.77504 c -0.86894,0.976272 -1.61517,1.914823 -1.65831,2.085669 -0.0432,0.170846 -0.99561,4.609471 -2.11665,9.863612 -1.12104,5.254138 -2.08304,9.729018 -2.13778,9.944168 l -0.0994,0.39119 h 4.73741 4.73742 l 2.26331,-1.32464 c 1.24485,-0.72855 2.27538,-1.31444 2.2901,-1.30197 0.0146,0.0125 -0.43332,1.7985 -0.99563,3.96896 -0.56233,2.17047 -1.06836,4.13067 -1.12449,4.35599 l -0.10203,0.40969 H 239.82364 228.263 Z m 26.19218,1.38694 c 0.0613,-0.10242 0.62305,-0.75606 1.24835,-1.45252 0.62533,-0.69647 1.26207,-1.40819 1.41503,-1.58161 0.20322,-0.23044 0.9435,-3.43318 2.75026,-11.898879 l 2.47222,-11.583571 -0.53157,-1.136549 c -0.29235,-0.625102 -0.65998,-1.425506 -0.81697,-1.778675 l -0.28541,-0.642127 9.62565,0.05426 c 9.15098,0.05159 9.67496,0.06915 10.62576,0.356161 1.91939,0.579372 3.12494,1.560943 3.8874,3.165086 0.36873,0.77575 0.39783,0.984976 0.39631,2.848429 -10e-4,1.978534 -0.0258,2.122419 -1.48659,8.864093 -1.60842,7.422732 -1.78562,8.067862 -2.68596,9.778622 -1.41471,2.68812 -3.78505,4.3631 -7.05185,4.98317 -1.53504,0.29136 -19.73596,0.31379 -19.56263,0.0241 z m 18.13485,-6.14613 c 0.86775,-0.25422 1.7141,-1.05496 1.98615,-1.87912 0.3501,-1.06059 2.90496,-13.349816 2.9119,-14.006564 0.009,-0.855867 -0.19269,-1.243544 -0.81871,-1.573331 -0.40645,-0.214103 -1.03714,-0.265939 -3.83941,-0.315549 l -3.35309,-0.05936 -0.0848,0.35125 c -0.2999,1.242307 -3.70447,17.318394 -3.70447,17.492194 0,0.31908 5.80815,0.31113 6.90242,-0.01 z"
       id="path114" />
  </g>
</svg>
